<?xml version="1.0" encoding="utf-8"?>
<!-- Generator: Adobe Illustrator 28.3.0, SVG Export Plug-In . SVG Version: 6.00 Build 0)  -->
<svg version="1.1" id="Capa_1" xmlns="http://www.w3.org/2000/svg" xmlns:xlink="http://www.w3.org/1999/xlink" x="0px" y="0px"
	 viewBox="0 0 256 228" style="enable-background:new 0 0 256 228;" xml:space="preserve">
<style type="text/css">
	.st0{fill:#0C73B8;}
</style>
<path class="st0" d="M210.5,73.8c-2.7-0.9-5.5-1.8-8.2-2.6c0.5-1.9,0.9-3.8,1.3-5.6c6.2-30.3,2.2-54.7-11.8-62.7
	c-13.4-7.7-35.2,0.3-57.3,19.5c-2.2,1.9-4.3,3.8-6.4,5.8c-1.4-1.3-2.8-2.6-4.2-3.9C100.8,3.8,77.6-4.8,63.7,3.2
	C50.3,11,46.4,33.9,52,62.6c0.6,2.8,1.2,5.7,1.9,8.5c-3.3,0.9-6.4,1.9-9.5,3C17.3,83.5,0,98.3,0,113.7c0,15.9,18.6,31.8,46.8,41.4
	c2.3,0.8,4.6,1.5,6.9,2.2c-0.8,3-1.4,6.1-2,9.1c-5.4,28.2-1.2,50.6,12.1,58.3c13.7,7.9,36.8-0.2,59.3-19.9c1.8-1.6,3.6-3.2,5.3-4.9
	c2.2,2.2,4.6,4.3,6.9,6.3c21.8,18.7,43.2,26.3,56.5,18.6c13.7-7.9,18.2-32,12.4-61.3c-0.5-2.3-1-4.6-1.5-6.8c1.6-0.5,3.2-1,4.8-1.5
	c29.3-9.7,48.4-25.4,48.4-41.5C256,98.3,238.1,83.3,210.5,73.8L210.5,73.8z M204.1,144.8c-1.4,0.5-2.8,0.9-4.3,1.3
	c-3.2-10.3-7.6-21.2-13-32.4c5.1-11,9.3-21.8,12.5-32c2.6,0.8,5.2,1.6,7.6,2.4c23.7,8.2,38.1,20.2,38.1,29.5
	C245.1,123.6,229.5,136.4,204.1,144.8z M193.6,165.6c2.6,12.9,2.9,24.6,1.2,33.8c-1.5,8.2-4.6,13.7-8.4,15.9
	c-8.1,4.7-25.3-1.4-43.9-17.4c-2.2-1.9-4.3-3.9-6.4-5.9c7.2-7.9,14.4-17.1,21.5-27.2c12.4-1.1,24.1-2.9,34.7-5.3
	C192.7,161.6,193.2,163.6,193.6,165.6z M87.3,214.5c-7.9,2.8-14.2,2.9-18,0.7c-8.1-4.7-11.4-22.6-6.9-46.8c0.5-2.8,1.2-5.7,1.9-8.5
	c10.5,2.3,22.1,4,34.5,5c7.1,10,14.5,19.1,22,27.1c-1.6,1.5-3.2,3-4.9,4.5C106,205.3,96,211.4,87.3,214.5L87.3,214.5z M50.3,144.7
	c-12.5-4.3-22.8-9.8-29.9-15.9c-6.4-5.4-9.6-10.8-9.6-15.2c0-9.3,13.9-21.2,37.1-29.3c2.8-1,5.8-1.9,8.8-2.8
	c3.2,10.4,7.4,21.3,12.5,32.3c-5.1,11.2-9.4,22.2-12.6,32.8C54.5,146.1,52.4,145.5,50.3,144.7L50.3,144.7z M62.7,60.5
	c-4.8-24.6-1.6-43.1,6.4-47.8c8.6-5,27.5,2.1,47.5,19.8c1.3,1.2,2.6,2.3,3.8,3.5c-7.4,8-14.8,17.1-21.8,27
	c-12,1.1-23.6,2.9-34.2,5.3C63.8,65.8,63.2,63.1,62.7,60.5L62.7,60.5z M173.2,87.8c-2.5-4.3-5.1-8.6-7.8-12.8c8.2,1,16,2.4,23.3,4.1
	c-2.2,7.1-5,14.5-8.2,22C178.2,96.6,175.7,92.1,173.2,87.8z M128.1,43.9c5,5.5,10.1,11.6,15.1,18.2c-10.1-0.5-20.2-0.5-30.3,0
	C117.9,55.5,123,49.4,128.1,43.9z M82.8,87.8c-2.5,4.4-4.9,8.8-7.2,13.2c-3.2-7.6-5.9-15-8.1-22.2c7.3-1.6,15.1-3,23.2-4
	C87.9,79.2,85.3,83.5,82.8,87.8L82.8,87.8z M90.9,153.2c-8.4-0.9-16.3-2.2-23.6-3.8c2.3-7.3,5-14.9,8.3-22.6
	c2.3,4.5,4.7,8.9,7.3,13.2C85.4,144.5,88.1,148.9,90.9,153.2z M128.4,184.2c-5.2-5.6-10.4-11.8-15.4-18.4c4.9,0.2,9.9,0.3,15,0.3
	c5.2,0,10.4-0.1,15.5-0.3C138.5,172.5,133.4,178.7,128.4,184.2z M180.6,126.4c3.4,7.8,6.3,15.3,8.6,22.5c-7.4,1.7-15.4,3.1-23.9,4.1
	c2.7-4.3,5.3-8.6,7.9-13C175.8,135.5,178.2,131,180.6,126.4L180.6,126.4z M163.7,134.5c-3.9,6.7-8,13.3-12.3,19.8
	c-7.8,0.6-15.6,0.8-23.4,0.8c-8,0-15.7-0.2-23.2-0.7c-4.4-6.5-8.6-13.1-12.5-19.8h0c-3.9-6.7-7.5-13.6-10.9-20.6
	c3.4-7,7-13.9,10.9-20.6l0,0c3.9-6.7,8-13.3,12.4-19.8c7.6-0.6,15.4-0.9,23.3-0.9h0c7.9,0,15.7,0.3,23.4,0.9
	c4.3,6.4,8.5,13,12.3,19.7c3.9,6.7,7.6,13.6,11,20.5C171.3,120.8,167.6,127.7,163.7,134.5z M186.3,12.4c8.6,4.9,11.9,24.9,6.5,51
	c-0.3,1.7-0.7,3.4-1.1,5.1c-10.6-2.5-22.2-4.3-34.2-5.4c-7-10-14.3-19.1-21.6-27c1.9-1.8,3.9-3.6,5.9-5.4
	C160.6,14.2,178.2,7.7,186.3,12.4L186.3,12.4z M128,90.8c12.6,0,22.9,10.2,22.9,22.9s-10.2,22.9-22.9,22.9s-22.9-10.2-22.9-22.9
	S115.4,90.8,128,90.8z"/>
</svg>
